<?xml version="1.0" standalone="no"?><!DOCTYPE svg PUBLIC "-//W3C//DTD SVG 1.1//EN" "http://www.w3.org/Graphics/SVG/1.1/DTD/svg11.dtd"><svg t="1543819564850" class="icon" style="" viewBox="0 0 1024 1024" version="1.1" xmlns="http://www.w3.org/2000/svg" p-id="3034" xmlns:xlink="http://www.w3.org/1999/xlink" width="128" height="128"><defs><style type="text/css"></style></defs><path d="M785.92 971.52H238.08c-102.4 0-185.6-83.2-185.6-185.6V238.08c0-102.4 83.2-185.6 185.6-185.6h549.12c102.4 0 185.6 83.2 185.6 185.6v549.12c-1.28 101.12-84.48 184.32-186.88 184.32z" fill="#D32D25" p-id="3035"></path><path d="M495.36 198.4c-158.72 7.68-288 135.68-298.24 294.4-3.84 71.68 15.36 139.52 52.48 194.56 3.84 5.12 11.52 7.68 17.92 5.12 38.4-12.8 66.56-30.72 84.48-44.8-5.12-14.08-7.68-30.72-2.56-47.36 7.68-30.72 33.28-53.76 64-57.6 52.48-7.68 96 37.12 88.32 89.6-5.12 30.72-28.16 56.32-58.88 64-16.64 3.84-33.28 2.56-47.36-3.84-17.92 14.08-42.24 29.44-72.96 44.8-10.24 5.12-11.52 19.2-2.56 25.6 56.32 43.52 128 67.84 206.08 64 160-7.68 290.56-138.24 298.24-298.24 11.52-186.88-142.08-340.48-328.96-330.24z" fill="#FBDC4C" p-id="3036"></path><path d="M436.48 816.64c24.32 6.4 49.92 8.96 76.8 8.96 167.68 0 304.64-131.84 313.6-296.96-53.76-104.96-203.52-185.6-336.64-208.64-136.96-23.04-231.68 60.16-282.88 124.16-2.56 12.8-5.12 24.32-6.4 37.12l7.68-6.4s84.48-94.72 256-85.76c207.36 11.52 262.4 125.44 262.4 125.44s6.4 229.12-290.56 302.08z" fill="#F9BB35" p-id="3037"></path><path d="M351.537166 286.990783a24.32 84.48 71.245 1 0 159.988575-54.324374 24.32 84.48 71.245 1 0-159.988575 54.324374Z" fill="#FAFF92" p-id="3038"></path><path d="M426.24 520.96c-55.04 0-98.56 43.52-98.56 98.56 0 14.08 2.56 26.88 7.68 39.68 6.4-3.84 11.52-7.68 16.64-11.52-5.12-14.08-7.68-30.72-2.56-47.36 7.68-30.72 33.28-53.76 64-57.6 52.48-7.68 96 37.12 88.32 89.6-5.12 30.72-28.16 56.32-58.88 64-16.64 3.84-33.28 2.56-47.36-3.84-5.12 3.84-11.52 8.96-19.2 14.08 14.08 7.68 30.72 12.8 48.64 12.8 55.04 0 98.56-43.52 98.56-98.56 1.28-55.04-42.24-99.84-97.28-99.84z" fill="#F9BB35" p-id="3039"></path></svg>