<?xml version="1.0" standalone="no"?><!DOCTYPE svg PUBLIC "-//W3C//DTD SVG 1.1//EN" "http://www.w3.org/Graphics/SVG/1.1/DTD/svg11.dtd"><svg t="1543819852705" class="icon" style="" viewBox="0 0 1024 1024" version="1.1" xmlns="http://www.w3.org/2000/svg" p-id="3451" xmlns:xlink="http://www.w3.org/1999/xlink" width="128" height="128"><defs><style type="text/css"></style></defs><path d="M857.6 353.28c66.56 0 120.32 53.76 120.32 120.32s-53.76 120.32-120.32 120.32" fill="#F8B428" p-id="3452"></path><path d="M857.6 622.08c-15.36 0-25.6-10.24-25.6-25.6s10.24-25.6 25.6-25.6c51.2 0 94.72-43.52 94.72-94.72s-43.52-94.72-94.72-94.72c-15.36 0-25.6-10.24-25.6-25.6s10.24-25.6 25.6-25.6c79.36 0 145.92 66.56 145.92 145.92s-66.56 145.92-145.92 145.92z" fill="" p-id="3453"></path><path d="M166.4 596.48c-66.56 0-120.32-53.76-120.32-120.32s53.76-120.32 120.32-120.32" fill="#F8B428" p-id="3454"></path><path d="M166.4 622.08c-79.36 0-145.92-66.56-145.92-145.92s66.56-145.92 145.92-145.92c15.36 0 25.6 10.24 25.6 25.6s-10.24 25.6-25.6 25.6c-51.2 0-94.72 43.52-94.72 94.72s43.52 94.72 94.72 94.72c15.36 0 25.6 10.24 25.6 25.6s-10.24 25.6-25.6 25.6z" fill="" p-id="3455"></path><path d="M512 972.8c-15.36 0-25.6-10.24-25.6-25.6s10.24-25.6 25.6-25.6c176.64 0 320-143.36 320-320v-230.4C832 194.56 688.64 51.2 512 51.2S192 194.56 192 371.2v222.72c0 15.36-10.24 25.6-25.6 25.6s-25.6-10.24-25.6-25.6v-222.72C140.8 168.96 307.2 2.56 512 2.56s371.2 166.4 371.2 371.2v230.4C883.2 806.4 716.8 972.8 512 972.8z" fill="" p-id="3456"></path><path d="M450.56 919.04m-76.8 0a76.8 76.8 0 1 0 153.6 0 76.8 76.8 0 1 0-153.6 0Z" fill="#F8B428" p-id="3457"></path><path d="M450.56 1021.44c-56.32 0-102.4-46.08-102.4-102.4s46.08-102.4 102.4-102.4 102.4 46.08 102.4 102.4-46.08 102.4-102.4 102.4z m0-153.6c-28.16 0-51.2 23.04-51.2 51.2s23.04 51.2 51.2 51.2 51.2-23.04 51.2-51.2-23.04-51.2-51.2-51.2z" fill="" p-id="3458"></path></svg>