<?xml version="1.0" standalone="no"?><!DOCTYPE svg PUBLIC "-//W3C//DTD SVG 1.1//EN" "http://www.w3.org/Graphics/SVG/1.1/DTD/svg11.dtd"><svg t="1543572547292" class="icon" style="" viewBox="0 0 1024 1024" version="1.1" xmlns="http://www.w3.org/2000/svg" p-id="1424" xmlns:xlink="http://www.w3.org/1999/xlink" width="128" height="128"><defs><style type="text/css"></style></defs><path d="M899.74010311 415.89347872v457.33448059c0 69.59437748-56.33830558 125.93268306-125.93268306 125.93268306H250.19257995c-69.59437748 0-125.93268306-56.33830558-125.93268306-125.93268306V415.89347872" fill="#FFFFFF" p-id="1425"></path><path d="M773.80742005 1015.73073225H250.19257995c-79.53643141 0-142.50277294-62.96634153-142.50277293-142.50277294V415.89347872h33.14017974v457.33448059c0 59.65232355 49.71026963 109.36259318 109.36259319 109.36259319H777.12143803c59.65232355 0 109.36259318-49.71026963 109.36259317-109.36259319V415.89347872h33.14017977v457.33448059c-3.31401797 76.22241343-66.2803595 142.50277294-145.81679092 142.50277294z" fill="" p-id="1426"></path><path d="M873.22795931 462.28973037H150.77204069c-59.65232355 0-106.0485752-49.71026963-106.04857521-106.0485752 0-59.65232355 49.71026963-106.0485752 106.04857521-106.04857522h722.45591862c59.65232355 0 106.0485752 49.71026963 106.04857521 106.04857522 0 56.33830558-46.39625165 106.0485752-106.04857521 106.0485752z" fill="#F8B428" p-id="1427"></path><path d="M873.22795931 478.85982025H150.77204069c-69.59437748 0-122.61866509-56.33830558-122.61866508-122.61866508s56.33830558-122.61866509 122.61866508-122.61866509h722.45591862c69.59437748 0 122.61866509 56.33830558 122.61866508 122.61866509S942.8223368 478.85982025 873.22795931 478.85982025zM150.77204069 263.44865185c-49.71026963 0-89.47848533 39.7682157-89.47848533 89.47848533S101.06177106 445.7196405 150.77204069 445.7196405h722.45591862c49.71026963 0 89.47848533-39.7682157 89.47848533-89.47848533s-39.7682157-89.47848533-89.47848533-89.47848534H150.77204069z" fill="" p-id="1428"></path><path d="M512 999.16064237V465.60374835" fill="#F8B428" p-id="1429"></path><path d="M495.42991013 465.60374835h33.14017974v533.55689402h-33.14017974z" fill="" p-id="1430"></path><path d="M717.46911447 263.44865185H306.53088553l-16.57008988-16.57008988c-26.51214381-26.51214381-43.08223369-62.96634153-43.08223368-99.42053925s13.2560719-72.90839547 39.76821572-96.10652129c26.51214381-26.51214381 59.65232355-39.7682157 96.10652128-39.7682157 36.45419773 0 72.90839547 13.2560719 96.10652128 39.7682157l33.14017975 26.51214381 29.82616178-29.82616177c26.51214381-26.51214381 59.65232355-39.7682157 96.10652128-39.76821572s72.90839547 13.2560719 96.10652129 39.76821572c26.51214381 26.51214381 43.08223369 62.96634153 43.08223368 99.42053925s-13.2560719 72.90839547-39.76821572 96.10652128l-19.88410784 19.88410785z m-397.68215704-33.14017975h384.42608514l9.94205393-9.94205393c16.57008987-19.88410785 29.82616178-46.39625165 29.82616177-72.90839545s-13.2560719-53.02428761-33.14017975-72.90839547c-39.7682157-39.7682157-109.36259318-39.7682157-149.13080889 0L512 124.25989689l-53.02428761-53.02428761c-39.7682157-39.7682157-109.36259318-39.7682157-149.13080889 0-16.57008987 23.19812583-29.82616178 46.39625165-29.82616177 76.22241344 0 26.51214381 9.94205392 53.02428761 29.82616177 72.90839545l9.94205393 9.94205393z" fill="" p-id="1431"></path><path d="M495.42991013 101.06177106h33.14017974V246.87856197h-33.14017974z" fill="" p-id="1432"></path></svg>