<?xml version="1.0" standalone="no"?><!DOCTYPE svg PUBLIC "-//W3C//DTD SVG 1.1//EN" "http://www.w3.org/Graphics/SVG/1.1/DTD/svg11.dtd"><svg t="1543819184385" class="icon" style="" viewBox="0 0 1024 1024" version="1.1" xmlns="http://www.w3.org/2000/svg" p-id="1943" xmlns:xlink="http://www.w3.org/1999/xlink" width="128" height="128"><defs><style type="text/css"></style></defs><path d="M970.93834935 332.18205026H50.37780066V230.1957504C50.37780066 192.62185044 79.90015061 163.0995005 117.47405056 163.0995005h789.05189888c37.57389995 0 67.0962499 29.52234996 67.0962499 67.0962499v101.98629986z" fill="#F8B428" p-id="1944"></path><path d="M898.47439945 887.73899947H125.52560055c-56.36084992 0-101.98629986-45.62544994-101.98629987-101.98629986V238.24730039C23.53930068 181.88645047 69.16475063 136.26100053 125.52560055 136.26100053h770.26494891c56.36084992 0 101.98629986 45.62544994 101.98629985 101.98629986v547.50539922c2.68385 56.36084992-42.94159994 101.98629986-99.30244986 101.98629986zM125.52560055 189.93800045c-26.83849996 0-48.30929993 21.47079998-48.30929993 48.30929994v547.50539922c0 26.83849996 21.47079998 48.30929993 48.30929993 48.30929994h770.26494891c26.83849996 0 48.30929993-21.47079998 48.30929993-48.30929994V238.24730039c0-26.83849996-21.47079998-48.30929993-48.30929993-48.30929994H125.52560055z" fill="" p-id="1945"></path><path d="M769.64959963 541.52234996H254.35040037c-16.10309998 0-26.83849996-10.73539998-26.83849997-26.83849996s10.73539998-26.83849996 26.83849997-26.83849997h450.88679937l-37.57389996-37.57389994c-10.73539998-10.73539998-10.73539998-26.83849996 0-37.57389995s26.83849996-10.73539998 37.57389996 0l83.19934988 83.19934988c8.05154999 8.05154999 10.73539998 18.78694997 5.36769998 29.52234996s-13.41924998 16.10309998-24.15464997 16.10309998zM334.86590025 740.12724968c-8.05154999 0-13.41924998-2.68385-18.78694997-8.05154999l-83.19934989-83.19934988c-8.05154999-8.05154999-10.73539998-18.78694997-5.36769999-29.52234995s13.41924998-16.10309998 24.15464997-16.10309999h515.29919927c16.10309998 0 26.83849996 10.73539998 26.83849996 26.83849996s-10.73539998 26.83849996-26.83849996 26.83849996H318.76280026l37.57389996 37.57389995c10.73539998 10.73539998 10.73539998 26.83849996 0 37.57389995-8.05154999 5.36769999-13.41924998 8.05154999-21.47079997 8.05154999zM973.62219934 369.7559502H50.37780066c-16.10309998 0-26.83849996-10.73539998-26.83849998-26.83849996s10.73539998-26.83849996 26.83849998-26.83849996h920.56054869c16.10309998 0 26.83849996 10.73539998 26.83849996 26.83849996s-10.73539998 26.83849996-24.15464997 26.83849996z" fill="" p-id="1946"></path></svg>