<?xml version="1.0" standalone="no"?><!DOCTYPE svg PUBLIC "-//W3C//DTD SVG 1.1//EN" "http://www.w3.org/Graphics/SVG/1.1/DTD/svg11.dtd"><svg t="1543819161049" class="icon" style="" viewBox="0 0 1024 1024" version="1.1" xmlns="http://www.w3.org/2000/svg" p-id="1943" xmlns:xlink="http://www.w3.org/1999/xlink" width="128" height="128"><defs><style type="text/css"></style></defs><path d="M772.06349206 983.08643962H254.90866184c-75.78993168 0-136.71909283-60.92916114-136.71909282-136.71909283V256.39473879c0-75.78993168 60.92916114-136.71909283 136.71909282-136.71909282h32.693696c11.88861663 0 22.29115632 10.40253968 22.29115733 22.29115632s-10.40253968 22.29115632-22.29115733 22.29115733h-32.693696c-50.52662146 0-92.13678019 41.61015873-92.13678019 92.13677917v591.45868496c0 50.52662146 41.61015873 92.13678019 92.13678019 92.13678019h517.15483022c50.52662146 0 92.13678019-41.61015873 92.13678019-92.13678019V256.39473879c0-50.52662146-41.61015873-92.13678019-92.13678019-92.13677917H734.91156419c-11.88861663 0-22.29115632-10.40253968-22.29115632-22.29115733s10.40253968-22.29115632 22.29115632-22.29115632h37.15192787c75.78993168 0 136.71909283 60.92916114 136.71909283 136.71909282v591.45868496c0 74.30385473-60.92916114 135.23301587-136.71909283 135.23301587z" fill="" p-id="1944"></path><path d="M654.66340165 226.67319771h-282.35464838c-41.61015873 0-75.78993168-34.17977295-75.7899327-75.78993269s34.17977295-75.78993168 75.7899327-75.78993169h282.35464838c41.61015873 0 75.78993168 34.17977295 75.78993168 75.78993169s-34.17977295 75.78993168-75.78993168 75.78993269z" fill="#F8B428" p-id="1945"></path><path d="M654.66340165 248.96435403h-282.35464838c-54.98485232 0-98.081088-44.58231263-98.08108902-98.08108901S318.80997689 51.31610006 372.30875327 51.31610006h282.35464838c54.98485232 0 98.081088 44.58231263 98.081088 98.081088s-43.09623568 99.56716597-98.081088 99.56716597zM372.30875327 95.8984127c-29.7215421 0-53.49877537 23.77723327-53.49877638 53.49877536s23.77723327 53.49877537 53.49877638 53.49877537h282.35464838c29.7215421 0 53.49877537-23.77723327 53.49877537-53.49877537S684.38494375 95.8984127 654.66340165 95.8984127h-282.35464838z" fill="" p-id="1946"></path><path d="M779.49387784 396.08598654H247.47827708c-11.88861663 0-22.29115632-10.40253968-22.29115733-22.29115632s10.40253968-22.29115632 22.29115733-22.29115632H779.49387784c11.88861663 0 22.29115632 10.40253968 22.29115632 22.29115632s-8.91646273 22.29115632-22.29115632 22.29115632zM779.49387784 578.87346895H247.47827708c-11.88861663 0-22.29115632-10.40253968-22.29115733-22.29115632s10.40253968-22.29115632 22.29115733-22.29115631H779.49387784c11.88861663 0 22.29115632 10.40253968 22.29115632 22.29115631s-8.91646273 22.29115632-22.29115632 22.29115632zM668.03809524 763.14702933H247.47827708c-11.88861663 0-22.29115632-10.40253968-22.29115733-22.29115631s10.40253968-22.29115632 22.29115733-22.29115632h420.55981816c11.88861663 0 22.29115632 10.40253968 22.29115632 22.29115632s-8.91646273 22.29115632-22.29115632 22.29115631z" fill="" p-id="1947"></path></svg>