<?xml version="1.0" standalone="no"?><!DOCTYPE svg PUBLIC "-//W3C//DTD SVG 1.1//EN" "http://www.w3.org/Graphics/SVG/1.1/DTD/svg11.dtd"><svg t="1543819857631" class="icon" style="" viewBox="0 0 1024 1024" version="1.1" xmlns="http://www.w3.org/2000/svg" p-id="3581" xmlns:xlink="http://www.w3.org/1999/xlink" width="128" height="128"><defs><style type="text/css"></style></defs><path d="M926.72 842.24h-143.36c-15.36 0-25.6-10.24-25.6-25.6s10.24-25.6 25.6-25.6h143.36c15.36 0 25.6-10.24 25.6-25.6V499.2c0-7.68-2.56-12.8-7.68-17.92l-148.48-143.36c-5.12-5.12-10.24-7.68-17.92-7.68h-117.76c-15.36 0-25.6-10.24-25.6-25.6s10.24-25.6 25.6-25.6h117.76c20.48 0 38.4 7.68 53.76 20.48l148.48 143.36c15.36 15.36 23.04 33.28 23.04 56.32v266.24c0 43.52-35.84 76.8-76.8 76.8zM691.2 842.24h-220.16c-15.36 0-25.6-10.24-25.6-25.6s10.24-25.6 25.6-25.6H691.2c15.36 0 25.6 10.24 25.6 25.6s-10.24 25.6-25.6 25.6z" fill="" p-id="3582"></path><path d="M885.76 588.8h-122.88c-15.36 0-25.6-10.24-25.6-25.6v-130.56c0-15.36 10.24-25.6 25.6-25.6s25.6 10.24 25.6 25.6V537.6h97.28c15.36 0 25.6 10.24 25.6 25.6s-10.24 25.6-25.6 25.6zM655.36 842.24H97.28c-43.52 0-76.8-33.28-76.8-76.8V204.8c0-56.32 46.08-99.84 99.84-99.84h458.24c56.32 0 99.84 46.08 99.84 99.84v611.84c2.56 15.36-10.24 25.6-23.04 25.6zM120.32 156.16c-25.6 0-48.64 23.04-48.64 48.64v560.64c0 15.36 10.24 25.6 25.6 25.6h532.48V204.8c0-28.16-23.04-48.64-48.64-48.64h-460.8z" fill="" p-id="3583"></path><path d="M304.64 796.16m-97.28 0a97.28 97.28 0 1 0 194.56 0 97.28 97.28 0 1 0-194.56 0Z" fill="#F8B428" p-id="3584"></path><path d="M304.64 919.04c-66.56 0-122.88-56.32-122.88-122.88 0-66.56 56.32-122.88 122.88-122.88s122.88 56.32 122.88 122.88c0 66.56-53.76 122.88-122.88 122.88z m0-194.56c-38.4 0-71.68 33.28-71.68 71.68s33.28 71.68 71.68 71.68c38.4 0 71.68-33.28 71.68-71.68s-30.72-71.68-71.68-71.68z" fill="" p-id="3585"></path><path d="M698.88 796.16m-97.28 0a97.28 97.28 0 1 0 194.56 0 97.28 97.28 0 1 0-194.56 0Z" fill="#F8B428" p-id="3586"></path><path d="M698.88 919.04c-66.56 0-122.88-56.32-122.88-122.88 0-66.56 56.32-122.88 122.88-122.88s122.88 56.32 122.88 122.88c0 66.56-53.76 122.88-122.88 122.88z m0-194.56c-38.4 0-71.68 33.28-71.68 71.68s33.28 71.68 71.68 71.68 71.68-33.28 71.68-71.68-30.72-71.68-71.68-71.68z" fill="" p-id="3587"></path></svg>