<?xml version="1.0" standalone="no"?><!DOCTYPE svg PUBLIC "-//W3C//DTD SVG 1.1//EN" "http://www.w3.org/Graphics/SVG/1.1/DTD/svg11.dtd"><svg t="1543572343224" class="icon" style="" viewBox="0 0 1024 1024" version="1.1" xmlns="http://www.w3.org/2000/svg" p-id="1424" xmlns:xlink="http://www.w3.org/1999/xlink" width="128" height="128"><defs><style type="text/css"></style></defs><path d="M914.28278107 978.79983084c-3.79512058 0-7.59024115 0-11.38536173-3.79512054-41.74632632-26.56584402-98.67313497-53.13168807-110.05849671-53.13168807-170.78042593 53.13168807-352.94621357-26.56584402-417.46326336-185.96090822-34.15608518-83.49265268-34.15608518-174.5755465 0-254.27307864 34.15608518-83.49265268 98.67313497-148.00970246 178.37066705-182.16578764 170.78042593-72.10729097 364.33157529 7.59024115 436.43886626 178.37066709 49.33656749 113.8536173 30.36096463 242.88771686-45.54144691 337.76573125-7.59024115 11.38536173-11.38536173 83.49265268-11.38536173 140.41946134 0 7.59024115-3.79512058 11.38536173-7.59024115 15.1804823-7.59024115 7.59024115-11.38536173 7.59024115-11.38536172 7.59024113z" fill="" p-id="1425"></path><path d="M792.83892263 883.92181647c11.38536173 0 37.95120574 7.59024115 102.46825556 41.74632632 0-45.54144689 3.79512058-113.8536173 18.97560288-132.82922016 68.31217036-83.49265268 83.49265268-201.14139054 41.74632634-299.81452553-30.36096463-72.10729097-87.28777325-129.03409959-159.39506423-159.39506417a296.01940491 296.01940491 0 0 0-227.70723452 0c-72.10729097 30.36096463-129.03409959 87.28777325-159.39506422 159.39506417s-30.36096463 155.59994361 0 227.7072346c60.72192923 144.21458188 216.32187285 212.52675227 375.71693705 163.19018477h7.59024114z" fill="#F8B428" p-id="1426"></path><path d="M261.52204197 975.0047103h-3.79512054c-7.59024115-3.79512058-15.18048228-7.59024115-15.18048235-15.18048235-7.59024115-79.6975321-22.77072345-174.5755465-37.95120572-185.9609082-125.238979-68.31217036-201.14139054-197.34626996-201.14139056-337.76573126 0-212.52675227 170.78042593-383.30717819 383.3071782-383.3071782S770.06819916 223.57083622 770.06819916 436.09758849s-166.98530537 379.51205762-379.51205759 379.51205758c-11.38536173 7.59024115-68.31217036 83.49265268-113.85361725 148.00970251 0 7.59024115-7.59024115 11.38536173-15.18048235 11.38536172z" fill="" p-id="1427"></path><path d="M390.55614157 83.1513749c-189.75602881 0-345.3559724 155.59994361-345.35597241 345.35597242 0 129.03409959 68.31217036 242.88771686 182.16578766 303.60964608 26.56584402 15.18048228 41.74632632 87.28777325 49.3365675 163.19018479 83.49265268-121.44385843 106.26337612-121.44385843 113.85361725-121.44385844 189.75602881 0 345.3559724-155.59994361 345.35597244-345.35597243 3.79512058-189.75602881-151.80482306-345.3559724-345.35597244-345.35597242z" fill="#FFFFFF" p-id="1428"></path></svg>