<?xml version="1.0" standalone="no"?><!DOCTYPE svg PUBLIC "-//W3C//DTD SVG 1.1//EN" "http://www.w3.org/Graphics/SVG/1.1/DTD/svg11.dtd"><svg t="1543573051785" class="icon" style="" viewBox="0 0 1024 1024" version="1.1" xmlns="http://www.w3.org/2000/svg" p-id="1424" xmlns:xlink="http://www.w3.org/1999/xlink" width="128" height="128"><defs><style type="text/css"></style></defs><path d="M874.62501128 457.1845913c-8.4331398 0-16.86627959-8.4331398-21.08284947-16.86627959-33.73255919-160.22965616-177.09593576-274.07704341-341.54216181-274.07704341-130.71366687 0-252.99419394 71.68168829-312.02617251 189.74564544-4.21656989 8.4331398-16.86627959 12.64970968-29.5159893 8.43313979-8.4331398-4.21656989-12.64970968-16.86627959-8.4331398-29.51598929 67.46511839-130.71366687 198.17878524-215.04506486 349.97530161-215.04506484 181.31250565 0 345.7587317 130.71366687 379.49129089 307.80960264 4.21656989 12.64970968-4.21656989 21.08284948-16.86627961 25.29941937v4.21656989zM512 899.92443071c-185.52907554 0-345.7587317-130.71366687-383.70786078-316.24274242-4.21656989-12.64970968 4.21656989-21.08284948 16.86627958-25.29941939 12.64970968 0 21.08284948 4.21656989 25.29941939 16.86627959 33.73255919 164.44622606 177.09593576 278.29361332 341.54216181 278.29361332 130.71366687 0 248.77762403-71.68168829 307.8096026-189.74564545 4.21656989-8.4331398 16.86627959-12.64970968 29.51598932-8.43313978 8.4331398 4.21656989 12.64970968 16.86627959 8.43313978 29.51598926-67.46511839 134.93023674-198.17878524 215.04506486-345.7587317 215.04506487z" fill="" p-id="1425"></path><path d="M31.31103154 579.46511839l122.28052706-134.93023678 118.06395716 134.93023678z" fill="#F8B428" p-id="1426"></path><path d="M271.65551576 600.54796788H31.31103154c-8.4331398 0-16.86627959-4.21656989-21.08284951-12.6497097-4.21656989-8.4331398 0-16.86627959 4.21656989-21.08284948l122.28052707-139.14680666c4.21656989-4.21656989 8.4331398-8.4331398 16.86627961-8.43313983 4.21656989 0 12.64970968 4.21656989 16.86627959 8.43313983l118.06395717 139.14680666c4.21656989 4.21656989 8.4331398 16.86627959 4.2165699 21.08284948-4.21656989 8.4331398-12.64970968 12.64970968-21.0828495 12.6497097z m-193.96221535-42.16569898h147.57994648l-71.68168829-84.33139799-75.89825819 84.33139799z" fill="" p-id="1427"></path><path d="M752.34448424 444.53488161l122.28052704 134.93023678 118.06395718-134.93023678z" fill="#F8B428" p-id="1428"></path><path d="M874.62501128 600.54796788c-4.21656989 0-12.64970968-4.21656989-16.86627958-8.43313981l-122.28052706-139.14680666c-4.21656989-4.21656989-8.4331398-16.86627959-4.2165699-21.08284948 4.21656989-8.4331398 12.64970968-12.64970968 21.0828495-12.64970972h240.34448422c8.4331398 0 16.86627959 4.21656989 21.08284951 12.64970972 4.21656989 8.4331398 4.21656989 16.86627959-4.21656989 21.08284948L891.49129089 596.33139796c-4.21656989 4.21656989-12.64970968 4.21656989-16.86627961 4.21656992z m-75.89825817-134.93023678l75.89825817 84.33139799 71.68168831-84.33139799h-147.57994648z" fill="" p-id="1429"></path></svg>