<?xml version="1.0" standalone="no"?><!DOCTYPE svg PUBLIC "-//W3C//DTD SVG 1.1//EN" "http://www.w3.org/Graphics/SVG/1.1/DTD/svg11.dtd"><svg t="1543819862558" class="icon" style="" viewBox="0 0 1024 1024" version="1.1" xmlns="http://www.w3.org/2000/svg" p-id="3710" xmlns:xlink="http://www.w3.org/1999/xlink" width="128" height="128"><defs><style type="text/css"></style></defs><path d="M880.64 867.84H143.36c-53.76 0-97.28-43.52-97.28-97.28V248.32c0-53.76 43.52-97.28 97.28-97.28h734.72c53.76 0 97.28 43.52 97.28 97.28v522.24c2.56 53.76-40.96 97.28-94.72 97.28zM143.36 202.24c-25.6 0-46.08 20.48-46.08 46.08v522.24c0 25.6 20.48 46.08 46.08 46.08h734.72c25.6 0 46.08-20.48 46.08-46.08V248.32c0-25.6-20.48-46.08-46.08-46.08H143.36z" fill="" p-id="3711"></path><path d="M307.2 261.12c-15.36 0-25.6-10.24-25.6-25.6v-51.2c0-15.36 10.24-25.6 25.6-25.6s25.6 10.24 25.6 25.6v51.2c0 15.36-12.8 25.6-25.6 25.6zM307.2 709.12c-15.36 0-25.6-10.24-25.6-25.6v-112.64c0-15.36 10.24-25.6 25.6-25.6s25.6 10.24 25.6 25.6v112.64c0 15.36-12.8 25.6-25.6 25.6z m0-222.72c-15.36 0-25.6-10.24-25.6-25.6v-112.64c0-15.36 10.24-25.6 25.6-25.6s25.6 10.24 25.6 25.6V460.8c0 12.8-12.8 25.6-25.6 25.6zM281.6 847.36v-51.2c0-15.36 10.24-25.6 25.6-25.6s25.6 10.24 25.6 25.6v51.2c0 12.8-51.2 12.8-51.2 0z" fill="" p-id="3712"></path><path d="M71.68 668.16c84.48 0 153.6-69.12 153.6-153.6s-69.12-153.6-153.6-153.6v307.2z" fill="#F8B428" p-id="3713"></path><path d="M71.68 693.76c-15.36 0-25.6-10.24-25.6-25.6v-307.2c0-15.36 10.24-25.6 25.6-25.6 99.84 0 179.2 79.36 179.2 179.2s-79.36 179.2-179.2 179.2z m25.6-304.64V640c58.88-12.8 102.4-64 102.4-125.44s-43.52-112.64-102.4-125.44z" fill="" p-id="3714"></path></svg>