<?xml version="1.0" standalone="no"?><!DOCTYPE svg PUBLIC "-//W3C//DTD SVG 1.1//EN" "http://www.w3.org/Graphics/SVG/1.1/DTD/svg11.dtd"><svg t="1543819127259" class="icon" style="" viewBox="0 0 1024 1024" version="1.1" xmlns="http://www.w3.org/2000/svg" p-id="2088" xmlns:xlink="http://www.w3.org/1999/xlink" width="128" height="128"><defs><style type="text/css"></style></defs><path d="M852.845714 937.691429H171.154286c-89.234286 0-160.914286-59.977143-160.914286-134.582858V358.4c0-74.605714 71.68-134.582857 160.914286-134.582857h683.154285c89.234286 0 160.914286 59.977143 160.914286 134.582857v444.708571c0 74.605714-73.142857 134.582857-162.377143 134.582858zM171.154286 267.702857c-64.365714 0-117.028571 40.96-117.028572 90.697143v444.708571c0 49.737143 52.662857 90.697143 117.028572 90.697143h683.154285c64.365714 0 117.028571-40.96 117.028572-90.697143V358.4c0-49.737143-52.662857-90.697143-117.028572-90.697143H171.154286z" fill="" p-id="2089"></path><path d="M823.588571 264.777143c-10.24 0-19.017143-5.851429-20.48-16.091429l-23.405714-87.771428c-4.388571-14.628571-19.017143-21.942857-26.331428-24.868572-16.091429-5.851429-36.571429-7.314286-57.051429-1.462857l-437.394286 127.268572c-11.702857 2.925714-23.405714-2.925714-27.794285-14.628572-2.925714-11.702857 2.925714-23.405714 14.628571-27.794286l437.394286-127.268571c29.257143-7.314286 58.514286-7.314286 83.382857 2.925714 27.794286 10.24 46.811429 30.72 52.662857 55.588572l23.405714 87.771428c2.925714 11.702857-4.388571 23.405714-16.091428 26.331429 1.462857-1.462857 0 0-2.925715 0z" fill="" p-id="2090"></path><path d="M362.788571 355.474286c-11.702857 0-21.942857-10.24-21.942857-21.942857v-87.771429c0-11.702857 10.24-21.942857 21.942857-21.942857s21.942857 10.24 21.942858 21.942857v87.771429c0 11.702857-10.24 21.942857-21.942858 21.942857zM362.788571 684.617143c-11.702857 0-21.942857-10.24-21.942857-21.942857V498.834286c0-11.702857 10.24-21.942857 21.942857-21.942857s21.942857 10.24 21.942858 21.942857v165.302857c0 11.702857-10.24 20.48-21.942858 20.48zM362.788571 937.691429c-11.702857 0-21.942857-10.24-21.942857-21.942858v-87.771428c0-11.702857 10.24-21.942857 21.942857-21.942857s21.942857 10.24 21.942858 21.942857v87.771428c0 11.702857-10.24 21.942857-21.942858 21.942858z" fill="" p-id="2091"></path><path d="M30.72 418.377143c87.771429 0 159.451429 71.68 159.451429 159.451428S118.491429 735.817143 30.72 735.817143V418.377143z" fill="#F8B428" p-id="2092"></path><path d="M30.72 757.76c-11.702857 0-21.942857-10.24-21.942857-21.942857V418.377143c0-11.702857 10.24-21.942857 21.942857-21.942857 99.474286 0 181.394286 80.457143 181.394286 181.394285 0 99.474286-80.457143 179.931429-181.394286 179.931429z m21.942857-315.977143v270.628572c64.365714-10.24 115.565714-67.291429 115.565714-134.582858 0-68.754286-49.737143-125.805714-115.565714-136.045714z" fill="" p-id="2093"></path><path d="M993.28 418.377143c-87.771429 0-159.451429 71.68-159.451429 159.451428s71.68 159.451429 159.451429 159.451429V418.377143z" fill="#F8B428" p-id="2094"></path><path d="M993.28 757.76c-99.474286 0-181.394286-80.457143-181.394286-181.394286C811.885714 476.891429 892.342857 394.971429 993.28 394.971429c11.702857 0 21.942857 10.24 21.942857 21.942857v317.44c0 13.165714-10.24 23.405714-21.942857 23.405714z m-21.942857-315.977143c-64.365714 10.24-115.565714 67.291429-115.565714 134.582857s49.737143 124.342857 115.565714 134.582857V441.782857z" fill="" p-id="2095"></path></svg>