<?xml version="1.0" standalone="no"?><!DOCTYPE svg PUBLIC "-//W3C//DTD SVG 1.1//EN" "http://www.w3.org/Graphics/SVG/1.1/DTD/svg11.dtd"><svg t="1543819374682" class="icon" style="" viewBox="0 0 1024 1024" version="1.1" xmlns="http://www.w3.org/2000/svg" p-id="2068" xmlns:xlink="http://www.w3.org/1999/xlink" width="128" height="128"><defs><style type="text/css"></style></defs><path d="M747.52 593.92c61.44-61.44 97.28-145.92 97.28-232.96 0-184.32-148.48-332.8-332.8-332.8S179.2 176.64 179.2 360.96c0 87.04 35.84 171.52 97.28 232.96C153.6 673.28 76.8 811.52 76.8 957.44c0 20.48 17.92 38.4 38.4 38.4h793.6c20.48 0 38.4-17.92 38.4-38.4 0-145.92-76.8-284.16-199.68-363.52z" fill="#F8B428" p-id="2069"></path><path d="M512 529.92c-66.56 0-128-43.52-151.04-104.96-5.12-12.8 2.56-28.16 15.36-33.28 12.8-5.12 28.16 2.56 33.28 15.36 15.36 43.52 58.88 71.68 104.96 71.68 43.52 0 89.6-30.72 104.96-71.68 5.12-12.8 20.48-20.48 33.28-15.36 12.8 5.12 20.48 20.48 15.36 33.28-28.16 61.44-89.6 104.96-156.16 104.96z" fill="#333333" p-id="2070"></path></svg>