<?xml version="1.0" standalone="no"?><!DOCTYPE svg PUBLIC "-//W3C//DTD SVG 1.1//EN" "http://www.w3.org/Graphics/SVG/1.1/DTD/svg11.dtd"><svg t="1543819354164" class="icon" style="" viewBox="0 0 1024 1024" version="1.1" xmlns="http://www.w3.org/2000/svg" p-id="1943" xmlns:xlink="http://www.w3.org/1999/xlink" width="128" height="128"><defs><style type="text/css"></style></defs><path d="M747.52 593.92c61.44-61.44 97.28-145.92 97.28-232.96 0-184.32-148.48-332.8-332.8-332.8S179.2 176.64 179.2 360.96c0 87.04 35.84 171.52 97.28 232.96C153.6 673.28 76.8 811.52 76.8 957.44c0 20.48 17.92 38.4 38.4 38.4h793.6c20.48 0 38.4-17.92 38.4-38.4 0-145.92-76.8-284.16-199.68-363.52zM156.16 919.04c12.8-122.88 89.6-230.4 202.24-284.16 12.8-5.12 20.48-17.92 23.04-30.72 0-12.8-5.12-25.6-15.36-35.84-66.56-48.64-107.52-125.44-107.52-209.92 0-140.8 115.2-256 256-256s256 115.2 256 256c0 81.92-40.96 161.28-107.52 209.92-10.24 7.68-17.92 20.48-15.36 35.84 0 12.8 10.24 25.6 23.04 30.72 112.64 53.76 189.44 163.84 202.24 284.16h-716.8z" fill="#333333" p-id="1944"></path><path d="M647.68 391.68c-12.8-5.12-28.16 2.56-33.28 15.36-15.36 40.96-58.88 71.68-104.96 71.68-46.08 0-87.04-28.16-104.96-71.68-5.12-12.8-20.48-20.48-33.28-15.36-12.8 5.12-20.48 20.48-15.36 33.28 23.04 64 84.48 104.96 151.04 104.96 66.56 0 128-43.52 151.04-104.96 10.24-15.36 5.12-30.72-10.24-33.28z" fill="#333333" p-id="1945"></path></svg>